<svg width="81" height="87" viewBox="0 0 81 87" fill="none" xmlns="http://www.w3.org/2000/svg">
<path d="M36.0688 1.24681C34.9688 1.84681 33.7688 2.84681 33.3688 3.44681C32.1688 5.24681 32.4688 11.5468 33.8688 12.9468C34.7688 13.9468 34.7688 14.4468 33.8688 14.7468C33.2688 14.9468 30.2688 16.9468 27.1688 19.1468C15.9688 27.1468 13.5688 37.1468 20.4688 47.9468C23.6688 52.9468 23.7688 53.0468 22.4688 58.1468C21.2688 62.8468 21.2688 63.3468 23.0688 64.6468C24.0688 65.4468 25.7688 66.0468 26.7688 66.0468C27.7688 66.0468 28.5688 66.4468 28.5688 66.9468C28.5688 68.4468 18.7688 70.1468 13.6688 69.5468C8.36879 68.8468 5.26879 70.1468 2.26879 74.2468C0.368791 76.8468 0.368791 77.0468 2.06879 79.7468C3.06879 81.2468 4.66879 83.5468 5.76879 84.6468C7.46879 86.5468 7.96879 86.6468 10.3688 85.5468C11.8688 84.8468 15.7688 83.9468 19.0688 83.6468C29.1688 82.5468 35.3688 81.0468 37.8688 79.0468C40.1688 77.2468 40.2688 77.2468 45.1688 79.6468C48.3688 81.1468 53.6688 82.5468 60.2688 83.3468C65.8688 84.0468 71.0688 85.2468 71.8688 85.8468C73.3688 87.1468 75.5688 85.2468 79.0688 79.7468C80.7688 77.0468 80.7688 76.8468 78.8688 74.2468C75.8688 70.2468 72.6688 68.9468 67.7688 69.5468C63.0688 70.2468 52.5688 68.4468 52.5688 66.9468C52.5688 66.4468 53.3688 66.0468 54.3688 66.0468C55.3688 66.0468 57.0688 65.4468 58.0688 64.6468C59.8688 63.3468 59.8688 62.7468 58.8688 57.9468C57.8688 53.2468 57.9688 52.2468 59.4688 50.0468C68.0688 37.9468 65.7688 27.0468 52.8688 18.4468L46.9688 14.4468L48.2688 11.3468C51.2688 3.84681 43.2688 -2.85319 36.0688 1.24681ZM43.3688 8.24681C43.6688 10.6468 43.3688 11.0468 41.0688 11.0468C38.3688 11.0468 36.9688 9.04681 37.9688 6.44681C38.9688 3.74681 43.0688 5.14681 43.3688 8.24681ZM43.3688 27.2468C43.5688 29.2468 44.2688 30.0468 45.6688 30.0468C47.0688 30.0468 47.5688 30.7468 47.5688 32.5468C47.5688 34.3468 47.0688 35.0468 45.6688 35.0468C44.2688 35.0468 43.5688 35.8468 43.3688 37.7468C43.1688 39.7468 42.4688 40.6468 40.8688 40.8468C38.8688 41.1468 38.5688 40.7468 38.5688 38.1468C38.5688 35.5468 38.1688 35.0468 36.0688 35.0468C32.6688 35.0468 32.3688 30.3468 35.8688 29.8468C37.4688 29.6468 38.1688 28.7468 38.3688 26.7468C38.6688 24.4468 39.1688 23.9468 40.8688 24.2468C42.4688 24.4468 43.1688 25.3468 43.3688 27.2468ZM52.7688 47.8468C55.0688 50.1468 51.6688 51.0468 40.9688 51.0468C33.8688 51.0468 30.3688 50.6468 28.9688 49.6468C27.3688 48.4468 27.3688 48.1468 28.5688 47.6468C33.5688 45.9468 50.9688 46.0468 52.7688 47.8468ZM52.0688 55.3468C54.9688 57.5468 52.1688 58.4468 41.0688 58.8468C33.2688 59.1468 30.6688 58.8468 29.0688 57.6468C27.0688 56.2468 27.0688 56.1468 29.5688 55.1468C33.4688 53.6468 49.8688 53.7468 52.0688 55.3468Z" fill="black"/>
</svg>
