<svg width="80" height="87" viewBox="0 0 80 87" fill="none" xmlns="http://www.w3.org/2000/svg">
<path d="M36.7688 0.746794C32.2688 1.64679 30.4688 7.44679 32.9688 13.1468C33.4688 14.3468 32.5688 15.4468 29.2688 17.4468C26.7688 18.8468 22.9688 22.1468 20.6688 24.6468C14.2688 31.9468 13.9688 38.8468 19.7688 47.4468C22.7688 52.0468 22.8688 52.3468 21.6688 57.2468C20.6688 61.6468 20.7688 62.5468 22.1688 64.2468C23.1688 65.2468 24.6688 66.0468 25.7688 66.0468C28.7688 66.0468 27.7688 67.8468 24.3688 68.6468C22.5688 69.0468 18.1688 69.3468 14.7688 69.2468C7.66876 69.0468 3.76876 70.5468 1.26876 74.4468C-0.331243 76.8468 -0.231243 77.0468 2.96876 81.2468C5.16876 84.1468 6.86876 85.4468 8.16876 85.2468C9.16876 85.0468 14.5688 84.2468 20.0688 83.4468C25.8688 82.5468 32.0688 80.9468 34.9688 79.5468C39.8688 77.2468 39.9688 77.2468 43.4688 78.9468C47.4688 80.9468 54.2688 82.6468 62.5688 83.5468C65.5688 83.8468 69.0688 84.7468 70.1688 85.5468C72.0688 86.7468 72.5688 86.6468 74.2688 84.7468C75.3688 83.5468 77.0688 81.2468 78.0688 79.7468C79.6688 77.3468 79.6688 76.6468 78.4688 74.4468C76.4688 70.5468 72.5688 69.0468 64.8688 69.2468C61.1688 69.2468 56.5688 69.0468 54.8688 68.6468C51.2688 67.8468 50.3688 66.0468 53.4688 66.0468C54.4688 66.0468 56.3688 65.2468 57.5688 64.2468C59.6688 62.5468 59.7688 62.3468 58.2688 57.4468C56.7688 52.4468 56.7688 52.3468 59.6688 48.0468C61.2688 45.6468 63.0688 41.9468 63.7688 39.8468C65.9688 32.4468 61.4688 24.3468 51.4688 17.8468C48.7688 16.1468 46.5688 14.6468 46.5688 14.5468C46.5688 14.4468 47.0688 12.9468 47.6688 11.1468C49.1688 6.74679 47.3688 2.54679 43.3688 1.14679C41.6688 0.546794 39.9688 0.146794 39.6688 0.146794C39.3688 0.246794 38.0688 0.546794 36.7688 0.746794ZM43.4688 6.94679C45.7688 11.1468 38.8688 14.0468 36.2688 9.84679C35.4688 8.64679 35.5688 7.74679 36.4688 6.64679C38.2688 4.44679 42.2688 4.64679 43.4688 6.94679ZM45.6688 19.1468C51.4688 22.0468 58.2688 28.6468 59.5688 32.4468C60.9688 36.8468 58.9688 43.0468 55.6688 44.7468C52.1688 46.4468 39.7688 47.4468 32.0688 46.5468C23.1688 45.6468 20.2688 43.1468 20.1688 36.4468C20.0688 30.1468 22.5688 26.5468 30.6688 21.1468C37.5688 16.5468 39.9688 16.1468 45.6688 19.1468ZM53.2688 52.2468V54.9468L39.8688 55.2468L26.5688 55.5468V52.5468V49.5468H39.8688H53.2688V52.2468ZM53.1688 59.5468C56.6688 62.2468 52.9688 63.0468 39.0688 62.8468C27.8688 62.5468 26.0688 62.3468 25.7688 60.8468C25.3688 58.7468 27.3688 58.3468 40.6688 58.1468C48.5688 58.0468 51.6688 58.4468 53.1688 59.5468ZM44.7688 68.5468C48.9688 71.3468 53.8688 72.6468 64.4688 73.7468C69.7688 74.3468 72.1688 75.0468 72.9688 76.2468C75.0688 79.6468 72.5688 80.3468 61.8688 79.1468C49.9688 77.8468 45.2688 76.4468 42.1688 73.3468C39.9688 71.2468 39.7688 71.1468 38.4688 72.7468C35.8688 75.7468 28.8688 78.0468 18.6688 79.0468C13.0688 79.6468 8.06876 79.8468 7.56876 79.5468C5.96876 78.5468 6.46876 75.3468 8.26876 74.5468C9.26876 74.2468 14.4688 73.5468 19.9688 73.0468C28.6688 72.3468 30.3688 71.8468 33.9688 69.1468C38.9688 65.4468 40.1688 65.3468 44.7688 68.5468Z" fill="black"/>
<path d="M37.5688 27.5469C37.5688 29.3469 37.0688 30.0469 35.5688 30.0469C34.0688 30.0469 33.5688 30.7469 33.5688 32.5469C33.5688 34.3469 34.0688 35.0469 35.5688 35.0469C37.0688 35.0469 37.5688 35.7469 37.5688 37.5469C37.5688 39.3469 38.0688 40.0469 39.5688 40.0469C41.0688 40.0469 41.5688 39.3469 41.5688 37.6469C41.5688 35.8469 42.1688 35.1469 43.8688 34.8469C45.2688 34.6469 46.0688 33.8469 46.0688 32.5469C46.0688 31.2469 45.2688 30.4469 43.8688 30.2469C42.1688 29.9469 41.5688 29.2469 41.5688 27.4469C41.5688 25.7469 41.0688 25.0469 39.5688 25.0469C38.0688 25.0469 37.5688 25.7469 37.5688 27.5469Z" fill="black"/>
</svg>
