<svg width="76" height="82" viewBox="0 0 76 82" fill="none" xmlns="http://www.w3.org/2000/svg">
<path d="M35.1688 2.54687C34.6688 4.34687 33.8688 5.04687 32.0688 5.04687C28.6688 5.04687 28.8688 7.44687 32.5688 10.2469C34.2688 11.4469 35.5688 12.8469 35.5688 13.3469C35.5688 13.9469 33.9688 15.8469 32.0688 17.7469C29.3688 20.3469 28.5688 21.9469 28.5688 24.5469C28.5688 28.6469 28.2688 28.7469 23.0688 25.9469C18.4688 23.5469 10.9688 23.8469 6.86885 26.5469C3.06885 29.0469 0.568848 34.0469 0.568848 39.0469C0.568848 42.6469 1.46885 44.9469 5.06885 50.4469C9.66885 57.5469 12.5688 65.1469 12.5688 70.1469C12.5688 79.1469 17.8688 81.5469 38.0688 81.5469C59.0688 81.5469 61.8688 80.0469 63.5688 68.1469C64.6688 60.4469 65.7688 57.6469 71.3688 49.3469C77.5688 39.8469 76.3688 30.9469 68.0688 26.3469C63.0688 23.5469 57.6688 23.4469 52.5688 26.0469C47.5688 28.6469 47.5688 28.6469 47.5688 25.0469C47.5688 23.0469 46.4688 20.7469 44.0688 18.1469C39.8688 13.5469 39.7688 12.6469 43.0688 10.4469C46.1688 8.44687 46.4688 5.04687 43.5688 5.04687C42.2688 5.04687 41.1688 4.04687 40.5688 2.54687C39.9688 1.04687 38.8688 0.0468738 37.6688 0.0468738C36.4688 0.0468738 35.5688 0.946874 35.1688 2.54687ZM40.5688 20.0469C42.6688 21.1469 44.0688 26.7469 43.1688 30.2469C42.8688 31.5469 41.5688 34.3469 40.2688 36.4469L37.8688 40.3469L35.1688 35.8469C31.9688 30.2469 31.6688 23.9469 34.5688 21.0469C36.8688 18.7469 37.8688 18.6469 40.5688 20.0469ZM25.0688 31.8469C30.5688 35.8469 34.8688 43.0469 34.9688 48.2469C35.0688 53.3469 33.9688 53.8469 21.0688 53.9469L11.9688 54.0469L8.26885 48.4469C2.56885 39.7469 3.56885 32.7469 10.9688 29.4469C15.1688 27.5469 20.1688 28.4469 25.0688 31.8469ZM66.1688 29.9469C72.6688 33.9469 72.9688 41.5469 66.8688 49.5469L63.2688 54.2469L53.0688 53.8469C40.6688 53.4469 39.3688 52.7469 40.7688 46.8469C42.3688 39.3469 48.0688 32.5469 55.0688 29.4469C59.2688 27.6469 62.5688 27.7469 66.1688 29.9469ZM49.7688 58.1469C55.2688 58.5469 60.0688 59.1469 60.2688 59.4469C60.4688 59.6469 60.3688 62.1469 59.9688 64.9469C59.4688 69.2469 58.9688 70.0469 57.6688 69.5469C56.7688 69.1469 51.8688 68.3469 46.7688 67.7469C37.8688 66.7469 23.2688 67.6469 18.4688 69.5469C17.1688 70.0469 16.6688 69.3469 16.1688 66.3469C15.7688 64.2469 15.2688 61.8469 14.9688 60.8469C14.5688 59.4469 15.6688 59.1469 22.2688 58.5469C26.5688 58.2469 31.8688 57.5469 34.0688 57.1469C36.2688 56.7469 38.4688 56.5469 38.8688 56.8469C39.3688 57.0469 44.1688 57.6469 49.7688 58.1469ZM52.4688 73.1469C56.2688 74.4469 56.4688 75.7469 52.8688 76.7469C49.1688 77.7469 26.8688 77.7469 23.2688 76.7469C19.7688 75.7469 20.2688 73.7469 24.1688 72.9469C29.1688 71.8469 49.0688 71.9469 52.4688 73.1469Z" fill="black"/>
</svg>
