<svg width="76" height="81" viewBox="0 0 76 81" fill="none" xmlns="http://www.w3.org/2000/svg">
<path d="M35.7688 0.527642C35.0688 1.22764 34.5688 2.32764 34.5688 3.02764C34.5688 3.72764 33.4688 4.32764 32.0688 4.32764C30.0688 4.32764 29.5688 4.82764 29.5688 6.62764C29.5688 8.22764 30.4688 9.42764 32.0688 10.1276C35.3688 11.6276 35.2688 13.9276 31.5688 17.3276C29.6688 19.1276 28.3688 21.4276 27.9688 24.1276L27.3688 28.2276L23.6688 26.2276C18.5688 23.5276 10.8688 23.6276 6.46878 26.6276C-0.831217 31.5276 -2.03122 39.4276 3.26878 47.9276C9.76878 58.4276 10.6688 60.5276 11.6688 66.5276C12.2688 70.0276 12.8688 73.7276 13.0688 74.9276C13.3688 76.2276 15.1688 77.7276 17.7688 78.9276C21.3688 80.5276 24.3688 80.8276 37.5688 80.8276C50.7688 80.8276 53.7688 80.5276 57.3688 78.9276C59.9688 77.7276 61.7688 76.2276 62.0688 74.9276C62.2688 73.7276 62.8688 70.0276 63.4688 66.5276C64.4688 60.4276 65.3688 58.5276 72.0688 47.6276C79.0688 36.3276 73.0688 24.3276 60.2688 24.3276C57.4688 24.3276 53.8688 25.1276 51.6688 26.3276L47.7688 28.2276L47.1688 24.3276C46.7688 21.9276 45.4688 19.4276 43.5688 17.6276C39.8688 14.2276 39.7688 11.6276 43.0688 10.1276C44.6688 9.42764 45.5688 8.22764 45.5688 6.62764C45.5688 4.82764 45.0688 4.32764 43.0688 4.32764C41.5688 4.32764 40.5688 3.72764 40.5688 2.82764C40.5688 0.727641 37.1688 -0.872358 35.7688 0.527642ZM24.4688 31.0276C29.5688 34.9276 32.6688 39.9276 33.8688 46.2276C34.9688 52.0276 35.1688 52.4276 37.5688 52.1276C39.3688 51.9276 40.1688 51.1276 40.3688 49.3276C41.7688 38.2276 49.3688 29.0276 57.5688 28.3276C62.9688 27.8276 65.3688 28.4276 67.9688 30.8276C72.1688 34.7276 71.6688 40.5276 66.4688 48.2276C64.1688 51.6276 61.3688 55.0276 60.1688 55.8276C57.0688 57.7276 16.5688 57.4276 14.1688 55.4276C11.3688 53.0276 5.46878 44.5276 4.56878 41.4276C3.56878 37.9276 4.86878 32.1276 7.06878 30.3276C10.9688 27.1276 19.6688 27.5276 24.4688 31.0276ZM53.3688 68.0276C54.7688 68.3276 55.5688 69.2276 55.3688 70.1276C55.0688 71.4276 52.5688 71.7276 37.2688 71.7276C20.1688 71.8276 17.0688 71.4276 19.3688 69.1276C21.6688 66.8276 45.0688 66.0276 53.3688 68.0276Z" fill="black"/>
<path d="M10.8688 32.5276C6.06883 34.8276 6.76883 42.0276 12.3688 48.3276C16.4688 52.9276 22.0688 54.8276 27.1688 53.4276C29.9688 52.7276 30.0688 52.4276 29.9688 47.4276C29.6688 36.7276 19.1688 28.5276 10.8688 32.5276Z" fill="black"/>
<path d="M53.6687 33.0276C49.5687 35.0276 45.5687 40.9276 44.4687 46.6276C43.5687 51.5276 44.5687 53.0276 49.0687 53.4276C55.1687 53.8276 57.2687 53.2276 60.5687 50.0276C67.9687 42.9276 69.4687 37.0276 64.9687 33.4276C61.7687 30.9276 58.2687 30.8276 53.6687 33.0276Z" fill="black"/>
</svg>
