<svg width="74" height="75" viewBox="0 0 74 75" fill="none" xmlns="http://www.w3.org/2000/svg">
<path d="M30.4688 2.94687C28.3688 5.74687 28.1688 5.84687 25.5688 4.54687C23.9688 3.74687 20.9688 2.84687 18.8688 2.44687L14.8688 1.84687L14.9688 7.64687C14.9688 12.8469 14.1688 15.3469 8.3688 28.0469C-0.5312 47.7469 -0.931201 49.2469 1.1688 52.5469C3.1688 55.6469 5.5688 57.0469 8.7688 57.0469C10.0688 57.0469 11.9688 57.7469 12.9688 58.5469C16.2688 61.0469 18.1688 60.2469 21.3688 55.1469C24.3688 50.2469 31.5688 44.0469 34.2688 44.0469C36.4688 44.0469 34.9688 47.6469 29.8688 54.7469C24.8688 61.9469 21.6688 68.5469 21.5688 71.7469V74.0469H47.6688H73.8688L73.3688 60.2469C72.7688 44.7469 70.2688 34.9469 64.5688 26.0469C58.6688 16.7469 49.3688 10.0469 42.3688 10.0469C41.4688 10.0469 39.8688 8.34687 38.8688 6.34687C37.8688 4.34687 36.0688 2.04687 34.8688 1.34687C32.8688 0.0468739 32.5688 0.146874 30.4688 2.94687ZM22.5688 7.04687C23.8688 7.94687 23.8688 8.14687 22.5688 9.04687C20.1688 10.6469 18.5688 10.2469 18.5688 8.04687C18.5688 5.84687 20.1688 5.44687 22.5688 7.04687ZM35.7688 10.2469C37.0688 14.5469 37.0688 14.5469 42.7688 15.0469C48.0688 15.5469 48.9688 15.9469 53.5688 20.5469C62.4688 29.1469 66.7688 38.2469 68.5688 52.4469C69.2688 57.2469 69.4688 63.1469 69.0688 65.6469L68.4688 70.0469H47.9688C24.1688 70.0469 24.8688 70.4469 31.7688 59.9469C37.3688 51.1469 39.5688 46.2469 39.5688 41.6469C39.5688 39.4469 40.3688 35.3469 41.2688 32.4469C42.1688 29.4469 42.5688 26.7469 42.1688 26.3469C40.9688 25.1469 37.5688 29.9469 36.3688 34.6469C35.5688 37.5469 34.3688 39.2469 32.6688 40.0469C28.4688 41.9469 22.6688 47.0469 19.4688 51.6469C16.2688 56.4469 14.5688 57.2469 14.5688 54.0469C14.5688 51.7469 14.4688 51.6469 11.1688 53.1469C9.1688 54.1469 8.1688 54.0469 6.0688 52.6469C4.6688 51.7469 3.5688 50.1469 3.5688 49.0469C3.5688 47.9469 6.8688 39.9469 10.9688 31.2469L18.4688 15.5469L25.0688 12.3469C28.6688 10.5469 31.8688 8.34687 32.1688 7.54687C33.1688 4.94687 34.3688 5.84687 35.7688 10.2469Z" fill="black"/>
<path d="M17.9688 23.5469C15.2688 26.2469 15.1688 28.3469 17.8688 28.8469C19.9688 29.2469 26.0688 23.7469 25.1688 22.2469C23.9688 20.2469 20.6688 20.9469 17.9688 23.5469Z" fill="black"/>
<path d="M6.16879 46.7467C5.36879 48.6467 6.96879 50.5467 8.46879 49.6467C10.0688 48.6467 9.76879 45.0467 8.16879 45.0467C7.36879 45.0467 6.46879 45.8467 6.16879 46.7467Z" fill="black"/>
</svg>
