<svg width="75" height="74" viewBox="0 0 75 74" fill="none" xmlns="http://www.w3.org/2000/svg">
<path d="M31.3688 2.74687C28.6688 5.44687 28.5688 5.44687 25.0688 3.74687C23.0688 2.84687 20.1688 2.04687 18.5688 2.04687C15.5688 2.04687 15.5688 2.14687 15.5688 7.54687C15.5688 12.1469 14.4688 15.3469 8.56878 28.5469C0.768782 45.6469 -0.131218 48.8469 1.46878 51.9469C3.06878 54.7469 8.26878 57.3469 11.5688 56.8469C13.4688 56.5469 14.6688 57.0469 15.4688 58.2469C17.1688 61.0469 18.1688 60.4469 22.5688 54.0469C26.1688 48.7469 32.8688 43.0469 35.4688 43.0469C37.2688 43.0469 35.0688 47.7469 29.3688 56.1469C25.2688 62.0469 23.2688 65.9469 22.8688 68.8469L22.2688 73.0469H48.4688H74.5688V62.2469C74.5688 56.3469 73.8688 48.3469 73.0688 44.5469C69.2688 26.3469 55.7688 10.0469 44.5688 10.0469C42.0688 10.0469 41.3688 9.44687 40.0688 6.44687C38.7688 3.14687 36.0688 0.146874 34.5688 0.0468739C34.2688 0.0468739 32.7688 1.24687 31.3688 2.74687ZM50.5688 18.4469C55.5688 21.7469 62.9688 31.7469 65.5688 38.8469C68.0688 45.3469 70.2688 61.3469 69.1688 65.4469C68.6688 67.3469 67.9688 68.0469 66.7688 67.8469C65.3688 67.5469 64.8688 65.5469 63.8688 56.7469C62.5688 45.1469 61.5688 41.0469 58.0688 34.0469C55.2688 28.4469 47.1688 20.7469 42.2688 18.9469C40.2688 18.2469 38.5688 17.3469 38.5688 17.0469C38.5688 14.1469 45.2688 14.8469 50.5688 18.4469ZM25.2688 21.7469C26.0688 23.7469 20.4688 29.0469 17.5688 29.0469C14.5688 29.0469 14.9688 24.6469 18.1688 22.1469C21.3688 19.6469 24.3688 19.4469 25.2688 21.7469ZM7.56878 46.8469C7.56878 48.7469 5.76878 51.0469 4.36878 51.0469C3.16878 51.0469 3.46878 47.5469 4.76878 46.2469C6.46878 44.5469 7.56878 44.7469 7.56878 46.8469Z" fill="black"/>
</svg>
