<svg width="54" height="74" viewBox="0 0 54 74" fill="none" xmlns="http://www.w3.org/2000/svg">
<path d="M21.8688 1.64687C17.6688 3.74687 15.9688 8.04687 17.3688 12.7469C18.3688 16.1469 18.2688 16.4469 14.4688 19.9469C11.1688 23.2469 10.5688 24.3469 10.5688 27.9469C10.5688 32.7469 11.8688 35.7469 14.9688 38.3469C16.1688 39.4469 16.6688 40.3469 15.9688 40.6469C15.3688 40.9469 13.0688 42.4469 10.7688 44.1469C5.0688 48.3469 1.5688 55.7469 0.868799 65.4469L0.268799 73.0469H26.9688H53.5688V66.7469C53.5688 55.5469 50.5688 49.1469 42.3688 43.1469L37.7688 39.6469L40.1688 37.8469C45.9688 33.2469 45.3688 23.0469 39.1688 18.7469C36.5688 17.0469 36.0688 16.1469 36.6688 14.5469C40.4688 4.84687 31.2688 -3.15313 21.8688 1.64687Z" fill="black"/>
</svg>
