<svg width="54" height="74" viewBox="0 0 54 74" fill="#fff" xmlns="http://www.w3.org/2000/svg">
<path d="M19.5688 2.74687C16.4688 5.34687 16.3688 5.64687 16.8688 10.8469C17.4688 16.0469 17.2688 16.3469 14.0688 19.2469C10.0688 22.7469 8.86879 27.3469 10.5688 32.5469C11.1688 34.5469 12.8688 36.8469 14.1688 37.7469L16.6688 39.3469L12.4688 42.1469C4.16879 47.6469 0.568787 54.8469 0.568787 66.1469V73.0469H27.1688H53.8688L53.3688 65.6469C52.6688 55.6469 49.1688 48.2469 42.4688 43.3469L37.6688 39.6469L40.6688 36.3469C42.8688 33.7469 43.5688 31.9469 43.5688 28.9469C43.5688 25.3469 41.0688 19.1469 39.5688 19.0469C39.2688 19.0469 38.2688 18.3469 37.2688 17.5469C35.5688 16.3469 35.4688 15.7469 36.5688 12.5469C38.8688 5.64687 34.5688 0.0468739 26.9688 0.0468739C23.8688 0.0468739 21.8688 0.746874 19.5688 2.74687ZM31.3688 5.94687C32.0688 6.84687 32.4688 8.54687 32.1688 9.74687C31.8688 11.0469 31.2688 13.1469 30.9688 14.4469C30.4688 16.4469 31.1688 17.6469 34.4688 20.8469C37.8688 24.0469 38.5688 25.3469 38.5688 28.5469C38.5688 31.5469 37.8688 32.9469 35.0688 35.4469C33.1688 37.2469 31.5688 39.1469 31.5688 39.7469C31.5688 40.4469 34.3688 42.8469 37.7688 45.2469C44.6688 50.0469 47.9688 55.3469 49.0688 63.3469L49.6688 68.0469H27.1688H4.56879V64.0469C4.56879 56.3469 8.56879 49.9469 17.3688 43.9469C19.6688 42.2469 21.5688 40.4469 21.5688 39.8469C21.5688 39.2469 19.9688 36.9469 17.9688 34.7469C14.7688 31.3469 14.4688 30.3469 14.8688 27.1469C15.3688 24.5469 16.6688 22.5469 19.5688 19.9469L23.7688 16.3469L22.1688 12.5469C21.2688 10.4469 20.7688 7.84687 21.1688 6.84687C22.3688 3.04687 28.6688 2.44687 31.3688 5.94687Z" fill="black"/>
</svg>
