<svg width="86" height="80" viewBox="0 0 86 80" fill="none" xmlns="http://www.w3.org/2000/svg">
<path d="M38.6349 1.53235C36.5349 3.03235 36.4349 3.63235 37.1349 7.33235C38.2349 12.8323 38.0349 30.8323 36.8349 33.9323L35.8349 36.4323L34.3349 33.4323C30.9349 26.9323 29.3349 20.2323 29.4349 13.7323C29.4349 7.63235 29.2349 6.83235 26.8349 4.93235C24.0349 2.73235 20.5349 2.83235 17.8349 5.13235C16.1349 6.53235 16.1349 13.6323 17.9349 14.6323C20.5349 16.2323 21.5349 19.9323 21.5349 27.9323C21.5349 37.3323 20.7349 37.7323 16.0349 31.0323C13.5349 27.5323 13.0349 25.8323 13.2349 21.6323C13.3349 15.6323 12.3349 13.2323 8.93494 11.9323C1.33494 9.03235 -3.36506 18.5323 2.93494 24.0323C4.53494 25.4323 5.53494 27.7323 6.03494 30.7323C7.53494 41.5323 9.83493 48.1323 13.9349 53.7323C19.2349 60.9323 19.7349 62.3323 18.4349 65.7323C16.1349 71.4323 15.6349 74.9323 17.1349 76.3323C19.6349 78.9323 31.4349 80.2323 47.6349 79.7323C69.1349 79.1323 71.9349 77.4323 68.0349 67.2323C66.0349 62.0323 66.5349 60.1323 71.9349 53.5323C75.3349 49.4323 77.2349 43.8323 79.4349 31.6323C80.2349 27.4323 81.2349 25.2323 82.9349 23.8323C85.9349 21.4323 86.5349 18.9323 85.0349 15.2323C83.3349 11.2323 79.1349 10.1323 75.6349 12.7323C73.4349 14.3323 72.9349 15.6323 72.5349 21.1323C72.1349 26.1323 71.3349 28.5323 69.1349 31.7323C67.5349 34.0323 65.9349 35.9323 65.5349 35.9323C64.1349 35.9323 63.4349 26.6323 64.3349 21.6323C64.9349 18.9323 66.2349 15.8323 67.4349 14.5323C73.4349 8.23235 64.5349 -0.467653 57.8349 5.13235C57.0349 5.83235 56.5349 8.83235 56.4349 13.3323C56.4349 18.5323 55.7349 22.4323 53.6349 27.9323C52.1349 32.0323 50.4349 35.4323 49.9349 35.4323C49.4349 35.4323 48.4349 31.4323 47.7349 26.4323C46.5349 18.5323 46.5349 16.8323 47.9349 11.7323C49.9349 4.43235 49.9349 4.33235 47.5349 1.93235C45.1349 -0.467653 41.7349 -0.667653 38.6349 1.53235ZM45.9349 5.13235C46.7349 6.53235 46.6349 7.23235 45.3349 8.53235C42.3349 11.5323 37.8349 7.63235 40.5349 4.33235C42.1349 2.53235 44.4349 2.83235 45.9349 5.13235ZM25.9349 9.23235C26.8349 10.7323 26.6349 11.3323 25.0349 12.5323C24.0349 13.3323 22.6349 13.8323 22.1349 13.6323C20.4349 13.0323 19.2349 10.2323 19.8349 8.53235C20.7349 6.33235 24.4349 6.83235 25.9349 9.23235ZM65.9349 9.23235C66.8349 10.7323 66.6349 11.3323 65.0349 12.5323C62.8349 14.1323 61.6349 13.9323 60.1349 11.7323C59.4349 10.5323 59.5349 9.63235 60.5349 8.43235C62.1349 6.53235 64.4349 6.83235 65.9349 9.23235ZM9.33494 17.8323C9.73494 20.7323 7.83494 22.1323 5.33494 20.8323C3.53494 19.8323 2.93494 16.9323 4.23494 15.5323C5.73494 14.0323 9.03494 15.4323 9.33494 17.8323ZM82.3349 17.6323C82.7349 20.6323 79.2349 22.5323 77.1349 20.3323C75.3349 18.5323 75.3349 18.6323 76.1349 16.4323C77.1349 13.9323 81.9349 14.8323 82.3349 17.6323ZM63.3349 49.7323C64.5349 50.4323 65.5349 51.6323 65.5349 52.3323C65.5349 53.5323 61.4349 53.7323 43.0349 53.7323C25.0349 53.7323 20.5349 53.4323 20.5349 52.3323C20.5349 49.0323 26.7349 48.0323 45.5349 48.3323C55.5349 48.4323 61.8349 48.9323 63.3349 49.7323ZM61.4349 64.8323C62.6349 65.5323 63.5349 66.7323 63.3349 67.6323C62.8349 69.9323 23.2349 69.9323 22.7349 67.6323C22.3349 65.6323 23.6349 64.9323 29.3349 63.9323C35.8349 62.7323 58.7349 63.4323 61.4349 64.8323Z" fill="black"/>
</svg>
