<svg width="87" height="81" viewBox="0 0 87 81" fill="none" xmlns="http://www.w3.org/2000/svg">
<path d="M40.4688 1.54687C37.0688 3.44687 36.3688 6.24687 38.1688 11.2469C39.8688 16.1469 39.8688 22.4469 38.1688 31.0469L36.8688 37.5469L34.2688 31.7469C30.7688 24.2469 29.2688 17.5469 30.0688 12.8469C30.9688 7.54687 28.6688 4.04687 24.2688 4.04687C19.9688 4.04687 17.7688 5.74687 16.9688 9.54687C16.5688 11.9469 16.9688 13.1469 18.9688 15.3469C20.3688 16.8469 21.7688 19.1469 22.0688 20.3469C22.9688 23.8469 22.1688 36.0469 21.0688 36.1469C20.5688 36.2469 18.5688 34.1469 16.8688 31.5469C14.0688 27.5469 13.5688 25.9469 13.5688 21.0469C13.5688 16.8469 13.0688 14.9469 11.7688 13.7469C7.66885 10.0469 0.568848 13.1469 0.568848 18.6469C0.568848 20.1469 1.76885 22.4469 3.56885 24.2469C5.26885 25.8469 6.56885 27.9469 6.56885 28.8469C6.56885 29.7469 7.56885 35.0469 8.86885 40.6469C10.8688 49.3469 11.6688 51.3469 15.3688 55.6469C19.9688 61.1469 20.3688 63.2469 18.0688 68.7469C16.0688 73.5469 16.1688 76.7469 18.4688 77.9469C24.4688 81.1469 57.1688 81.7469 66.1688 78.8469C70.7688 77.3469 71.4688 74.8469 69.1688 68.9469C66.7688 63.0469 67.1688 61.2469 71.9688 55.3469C76.4688 49.9469 78.5688 43.9469 80.2688 31.5469C80.6688 28.5469 81.7688 26.3469 83.6688 24.4469C90.4688 17.9469 83.3688 8.24687 75.7688 13.6469C73.9688 14.9469 73.5688 16.1469 73.5688 20.9469C73.5688 25.7469 73.0688 27.5469 70.4688 31.3469C66.3688 37.5469 65.7688 37.7469 64.9688 33.5469C63.8688 27.3469 65.0688 20.4469 68.0688 16.0469C70.9688 11.8469 70.9688 8.64687 67.9688 5.64687C66.0688 3.64687 61.5688 3.54687 58.9688 5.44687C57.3688 6.64687 57.0688 7.94687 57.3688 13.3469C57.5688 18.5469 56.9688 21.5469 54.4688 28.4469C52.7688 33.1469 51.0688 36.8469 50.5688 36.5469C50.1688 36.2469 49.1688 32.2469 48.4688 27.5469C47.4688 20.5469 47.4688 18.0469 48.6688 13.3469C49.3688 10.1469 49.8688 6.64687 49.7688 5.54687C49.2688 1.34687 44.4688 -0.653126 40.4688 1.54687ZM46.3688 6.74687C46.0688 9.94687 41.9688 11.3469 40.9688 8.64687C39.9688 6.04687 41.3688 4.04687 44.0688 4.04687C46.3688 4.04687 46.6688 4.44687 46.3688 6.74687ZM25.3688 7.94687C26.1688 8.34687 26.5688 9.84687 26.3688 11.1469C26.1688 12.9469 25.4688 13.5469 23.5688 13.5469C21.6688 13.5469 20.9688 12.9469 20.7688 11.1469C20.4688 9.14687 21.8688 7.04687 23.5688 7.04687C23.8688 7.04687 24.6688 7.44687 25.3688 7.94687ZM65.3688 7.94687C66.1688 8.34687 66.5688 9.84687 66.3688 11.1469C66.1688 12.9469 65.4688 13.5469 63.5688 13.5469C61.6688 13.5469 60.9688 12.9469 60.7688 11.1469C60.4688 9.14687 61.8688 7.04687 63.5688 7.04687C63.8688 7.04687 64.6688 7.44687 65.3688 7.94687ZM9.86885 17.1469C12.1688 20.8469 7.36885 23.9469 4.66885 20.6469C3.76885 19.5469 3.66885 18.6469 4.56885 17.0469C5.86885 14.6469 8.36885 14.7469 9.86885 17.1469ZM82.1688 16.4469C83.6688 17.6469 83.8688 18.2469 82.9688 19.7469C81.5688 22.0469 78.6688 22.0469 77.2688 19.8469C76.4688 18.6469 76.5688 17.7469 77.4688 16.6469C79.0688 14.6469 79.6688 14.6469 82.1688 16.4469ZM34.5688 39.1469L37.3688 42.5469L39.4688 38.0469C40.6688 35.5469 41.8688 31.8469 42.1688 29.7469C43.1688 24.2469 44.2688 24.3469 45.4688 30.1469C46.0688 33.0469 47.3688 36.8469 48.2688 38.7469C49.7688 41.9469 49.8688 42.0469 51.7688 40.3469C52.7688 39.4469 55.1688 35.5469 57.0688 31.7469L60.3688 24.7469L61.0688 30.6469C61.3688 33.8469 62.0688 38.3469 62.4688 40.5469L63.2688 44.5469L69.4688 38.3469L75.7688 32.1469L75.0688 36.6469C74.0688 43.3469 71.9688 48.5469 70.4688 48.3469C69.6688 48.2469 66.3688 47.1469 63.0688 45.9469C58.0688 44.0469 54.9688 43.6469 44.0688 43.6469C32.5688 43.6469 30.1688 43.9469 23.5688 46.2469C18.1688 48.1469 15.8688 48.5469 15.3688 47.7469C14.4688 46.3469 12.9688 41.0469 11.9688 35.7469L11.2688 31.8469L17.5688 38.2469L23.8688 44.5469L24.6688 41.5469C25.1688 39.8469 25.8688 35.2469 26.1688 31.1469L26.8688 23.7469L29.2688 29.7469C30.5688 33.0469 32.9688 37.2469 34.5688 39.1469ZM53.4688 48.1469C62.3688 49.2469 65.5688 50.3469 65.5688 52.3469C65.5688 53.2469 60.1688 53.5469 43.5688 53.6469C27.2688 53.6469 21.5688 53.3469 21.5688 52.4469C21.5688 50.8469 26.3688 49.0469 32.7688 48.0469C40.5688 46.9469 44.2688 46.9469 53.4688 48.1469ZM63.0688 58.2469C63.3688 58.4469 63.2688 60.2469 62.9688 62.1469L62.3688 65.5469H43.4688C24.7688 65.5469 24.5688 65.5469 24.5688 63.3469C24.5688 62.1469 24.2688 60.5469 23.9688 59.6469C23.5688 58.4469 24.3688 58.0469 28.2688 57.7469C33.8688 57.2469 62.4688 57.6469 63.0688 58.2469ZM62.3688 70.9469C65.5688 72.6469 65.0688 73.8469 60.8688 74.9469C56.6688 76.1469 32.7688 76.4469 27.5688 75.4469C24.5688 74.7469 22.6688 72.6469 23.9688 71.3469C26.3688 68.9469 58.0688 68.6469 62.3688 70.9469Z" fill="black"/>
</svg>
