<svg width="64" height="74" viewBox="0 0 64 74" fill="none" xmlns="http://www.w3.org/2000/svg">
<path d="M4.26885 1.84658C3.06885 3.14658 2.56885 5.44658 2.56885 9.14658C2.66885 14.4466 2.66885 14.6466 8.06885 19.0466L13.4688 23.5466V36.5466L13.5688 49.6466L7.06885 56.0466C1.16885 61.8466 0.568848 62.8466 0.568848 66.5466C0.568848 68.8466 1.06885 71.1466 1.76885 71.8466C3.46885 73.5466 60.6688 73.5466 62.3688 71.8466C63.0688 71.1466 63.5688 68.8466 63.5688 66.5466C63.5688 62.8466 62.9688 61.8466 57.0688 56.0466L50.5688 49.6466V36.8466V24.1466L56.0688 19.4466C61.5688 14.7466 61.5688 14.6466 61.5688 9.04658C61.5688 1.34658 59.8688 -0.153419 51.9688 0.246581C46.9688 0.546581 45.8688 0.846581 45.0688 2.74658C44.5688 4.04658 43.3688 5.04658 42.3688 5.04658C41.3688 5.04658 40.5688 4.14658 40.3688 2.74658C40.0688 0.646581 39.5688 0.546581 32.0688 0.546581C24.5688 0.546581 24.0688 0.646581 23.7688 2.74658C23.5688 4.14658 22.7688 5.04658 21.7688 5.04658C20.7688 5.04658 19.5688 4.04658 19.0688 2.74658C18.1688 0.846581 17.1688 0.546581 11.9688 0.246581C7.16885 0.0465809 5.66885 0.346581 4.26885 1.84658ZM15.5688 5.94658C15.5688 8.74658 17.9688 10.2466 22.2688 9.84658C25.0688 9.64658 26.3688 8.94658 27.0688 7.24658C27.8688 5.44658 28.8688 5.04658 32.7688 5.04658C36.8688 5.04658 37.4688 5.34658 37.7688 7.24658C37.9688 9.14658 38.7688 9.64658 41.8688 9.84658C46.1688 10.2466 48.5688 8.74658 48.5688 5.94658C48.5688 4.44658 49.2688 4.04658 51.8688 4.04658C56.0688 4.04658 57.5688 5.54658 57.5688 10.0466C57.5688 12.8466 56.7688 14.1466 53.5688 16.7466L49.6688 20.0466H32.2688H14.9688L10.7688 16.8466C7.16885 14.1466 6.56885 13.0466 6.56885 10.0466C6.56885 5.54658 8.06885 4.04658 12.2688 4.04658C14.8688 4.04658 15.5688 4.44658 15.5688 5.94658ZM46.5688 35.5466V47.0466H32.0688H17.5688V35.5466V24.0466H32.0688H46.5688V35.5466ZM50.5688 54.2466C52.7688 56.0466 54.5688 57.8466 54.5688 58.2466C54.5688 58.7466 44.3688 59.0466 31.8688 59.0466H9.16885L13.0688 55.0466L16.9688 51.0466H31.8688H46.6688L50.5688 54.2466ZM59.5688 65.5466V68.0466H32.0688H4.56885V65.5466V63.0466H32.0688H59.5688V65.5466Z" fill="black"/>
</svg>
