<svg width="63" height="72" viewBox="0 0 63 72" fill="none" xmlns="http://www.w3.org/2000/svg">
<path d="M4.66885 1.94674C4.06885 3.04674 3.56885 6.14674 3.56885 8.84674C3.56885 13.4467 3.86885 14.1467 8.56885 18.8467L13.5688 23.8467V36.2467V48.6467L7.06885 55.0467C1.16885 60.9467 0.568848 61.8467 0.568848 65.6467C0.568848 67.9467 1.16885 70.3467 1.96885 70.9467C2.86885 71.7467 11.8688 72.0467 32.6688 71.8467L62.0688 71.5467L62.3688 66.0467L62.6688 60.5467L56.5688 54.7467L50.5688 48.8467V36.1467V23.4467L55.0688 19.0467C59.4688 14.7467 59.5688 14.4467 59.5688 8.44674C59.5688 0.84674 58.5688 -0.15326 51.3688 0.24674C46.7688 0.54674 46.0688 0.84674 45.7688 2.74674C45.5688 4.44674 44.7688 5.04674 43.0688 5.04674C41.3688 5.04674 40.5688 4.44674 40.3688 2.74674C40.0688 0.74674 39.4688 0.54674 31.8688 0.24674C23.7688 -0.0532603 23.5688 0.0467397 22.9688 2.54674C22.1688 5.94674 17.8688 6.14674 17.3688 2.74674C17.0688 0.84674 16.3688 0.54674 11.3688 0.24674C6.56885 -0.0532603 5.56885 0.24674 4.66885 1.94674ZM46.3688 25.2467C46.0688 27.4467 45.7688 27.5467 31.8688 27.8467L17.5688 28.1467V25.5467V23.0467H32.1688C46.6688 23.0467 46.6688 23.0467 46.3688 25.2467ZM46.3688 47.8467C46.6688 50.0467 46.4688 50.0467 32.1688 50.0467C18.2688 50.0467 17.5688 49.9467 17.5688 48.0467C17.5688 46.2467 18.3688 46.0467 30.3688 45.8467C46.7688 45.4467 45.9688 45.3467 46.3688 47.8467Z" fill="black"/>
</svg>
